<svg id="Capa_1" enable-background="new 0 0 494.479 494.479" height="512" viewBox="0 0 494.479 494.479" width="512" xmlns="http://www.w3.org/2000/svg"><path d="m380.555 431.539v-78.24h45.577c3.261-13.707 4.997-28.005 4.997-42.71 0-36.732-10.771-70.946-29.325-99.66h-36.961v-39.12h3.025c-26.978-23.466-60.858-39.203-98.196-43.745l-69.163 13.31-93.116 78.154-25.285 125.965 50.646 96.543 67.755 39.997 31.01 9.654 28.877 2.319c49.922-3.53 94.331-26.992 125.34-62.467z" fill="#a6e7f0"/><path d="m140.665 417.374c5.186-6.18 8.192-14.246 7.812-23.01-.783-18.054-16.111-32.075-34.182-32.075-1.053 0-1.984-.703-2.259-1.719-1.556-5.744-2.845-11.596-3.842-17.549-.641-3.826 2.281-7.322 6.16-7.322h51.873c18.14 0 33.48-14.137 34.169-32.264.089-2.341-.064-4.636-.436-6.856h20.44c18.777 0 34.544-15.366 34.224-34.14-.31-18.239-15.244-32.98-33.555-32.98h-85.166c-4.794 0-7.84-5.197-5.431-9.341 2.724-4.686 5.649-9.24 8.764-13.651 1.942-2.75 5.107-4.378 8.473-4.378h32.486c18.8 0 34.647-15.385 34.307-34.182-.073-4.031-.856-7.944-2.286-11.599-2.042-5.216.512-11.088 5.67-13.273 18.187-7.705 37.868-12.571 58.492-14.03-9.492-1.512-19.222-2.307-29.14-2.307-101.56 0-183.89 82.33-183.89 183.89s82.33 183.89 183.89 183.89c4.425 0 8.811-.166 13.158-.473-49.164-7.829-91.83-35.141-119.835-73.774-.623-.861-.58-2.042.104-2.857z" fill="#6bd9e7"/><g id="XMLID_308_"><g><g fill="#97da7b"><path d="m426.129 353.299h.01c-7 29.46-21.1 56.18-40.39 78.24h-29.05c-5.4 0-10.29-2.19-13.83-5.73s-5.73-8.43-5.73-13.83c0-10.8 8.76-19.56 19.56-19.56h-32.94c-10.8 0-19.56-8.75-19.56-19.56 0-10.8 8.76-19.56 19.56-19.56z"/><path d="m253.349 400.849c10.8 0 19.56 8.76 19.56 19.56 0 5.4-2.19 10.29-5.73 13.83s-8.43 5.73-13.83 5.73h-35.05c-10.81 0-19.56-8.76-19.56-19.56 0-5.4 2.19-10.29 5.73-13.83 3.53-3.54 8.43-5.73 13.83-5.73z"/><path d="m343.229 265.579c10.8 0 19.56 8.76 19.56 19.56 0 5.4-2.19 10.29-5.73 13.83s-8.43 5.73-13.83 5.73h-35.06c-10.8 0-19.56-8.76-19.56-19.56 0-5.4 2.19-10.29 5.73-13.83s8.43-5.73 13.83-5.73z"/></g><path d="m221.069 243.459c10.81 0 19.56 8.76 19.56 19.56s-8.75 19.56-19.56 19.56h-54.21c10.8 0 19.56 8.76 19.56 19.56s-8.76 19.56-19.56 19.56h-101.41l-1.763.052c-.23-3.71-.337-7.402-.337-11.162 0-23.8 4.412-46.275 12.642-67.155l2.698.025z" fill="#68ca44"/><path d="m194.779 154.699c3.54 3.54 5.73 8.43 5.73 13.83 0 10.8-8.76 19.56-19.56 19.56h-70.84l-.01-.01c14.03-15.7 30.72-28.97 49.36-39.12v.01h21.49c5.4 0 10.29 2.19 13.83 5.73z" fill="#68ca44"/><path d="m401.799 210.929h-66.87c-5.4 0-10.29-2.19-13.83-5.73s-5.73-8.42-5.73-13.83c0-10.8 8.76-19.56 19.56-19.56h32.95c13.06 11.35 24.5 24.52 33.92 39.12z" fill="#97da7b"/></g></g><g id="XMLID_297_"><g fill="#80d261"><path d="m365.059 17.239c4.55 2.74 6.49 8.33 4.61 13.3-5.68 15.05-20.18 45.81-46.33 54.87s-56.56-6.14-70.34-14.45c-4.55-2.75-6.48-8.33-4.61-13.3 5.68-15.06 20.18-45.81 46.33-54.87s56.57 6.14 70.34 14.45z"/><path d="m246.389 57.659c1.88 4.97-.06 10.55-4.61 13.3-13.77 8.31-44.19 23.51-70.34 14.45s-40.64-39.82-46.33-54.87c-1.87-4.97.06-10.56 4.61-13.3 13.78-8.31 44.19-23.51 70.34-14.45s40.65 39.81 46.33 54.87z"/></g></g><g><path d="m247.239 198.872c-4.142 0-7.5-3.357-7.5-7.5v-125.678c0-4.143 3.358-7.5 7.5-7.5s7.5 3.357 7.5 7.5v125.678c0 4.142-3.357 7.5-7.5 7.5z" fill="#68ca44"/></g><g><path d="m253.324 71.64c-2.718 0-5.34-1.482-6.672-4.063-1.899-3.682-.454-8.205 3.228-10.104 26.289-13.56 50.599-22.599 74.319-27.633 4.054-.862 8.034 1.728 8.894 5.78s-1.728 8.033-5.779 8.894c-22.394 4.752-45.473 13.353-70.558 26.291-1.099.566-2.274.835-3.432.835z" fill="#68ca44"/></g><g><path d="m243.155 71.639c-1.157 0-2.332-.27-3.432-.836-25.085-12.938-48.165-21.538-70.558-26.29-4.052-.86-6.64-4.842-5.779-8.894.86-4.053 4.842-6.639 8.894-5.78 23.719 5.034 48.029 14.072 74.319 27.632 3.681 1.899 5.126 6.423 3.228 10.104-1.332 2.582-3.955 4.064-6.672 4.064z" fill="#68ca44"/></g><path d="m114.949 376.289c10.8 0 19.56 8.76 19.56 19.56 0 10.81-8.76 19.56-19.56 19.56h-18.8l-.02.01c-8.38-12.07-15.36-25.18-20.69-39.12l.01-.01z" fill="#68ca44"/></svg>